#!OML:ASF E:/inclinewalkrobotboard/Project1/Captureday1/Session1/subject1.ASF
:FULLY-SPECIFIED
:DEGREES
88
root 0 0 0 1.5398316914910786 -3.8679785382514575 1.8519581404687275
lowerback 12.239434429169698 0.9607018495272663 0.025087597687218077
upperback -4.446824751068785 1.2162674210776818 -0.6309315804687593
thorax -11.735707833396027 0.5625807778531946 -0.9370246512778073
lowerneck -6.067408390513076 1.8661568228369683 4.774017015928954
upperneck 18.110239485769178 3.499064576603791 -8.585522859811126
head 6.648273994507768 1.3077735582923826 -3.279990514725182
rclavicle 2.1593023335184523E-15 -7.096619119350277E-16
rhumerus 21.08769141382308 15.626531912617297 -47.806980199377044
rradius 73.27600179647433
rwrist 26.69469901204031
rhand -34.61514675304059 -57.18118131883873
rfingers 7.1250200000000286
rthumb -7.7174739010572875 -87.14228578778983
lclavicle -7.410928144447443E-16 -7.503249087238623E-16
lhumerus 23.16937026805308 -14.45290927867989 44.745019088179674
lradius 71.82730883538198
lwrist -22.254167505406215
lhand -45.75352344717328 -71.95540729269169
lfingers 7.1250200000000286
lthumb -18.50759019203152 -42.73874958384302
rfemur -24.972123460573243 -1.9522207904424675 17.77639007175662
rtibia 50.66282784257435
rfoot -34.25934669642298 -18.286989164701236
rtoes -21.87519771748785
lfemur -28.081037330658287 2.1431791148524857 -17.15307292587052
ltibia 50.8664546216542
lfoot -35.542947270542236 -0.2801592546289955
ltoes -22.096514788346905
89
root 0 0 0 1.5337479825154121 -3.8170674367773345 1.8916497153871057
lowerback 12.22252439657517 0.9497220863416331 -0.016502742808787052
upperback -4.450131216308933 1.196517904431996 -0.6376528915244261
thorax -11.730175173098411 0.5537634074815547 -0.9187109816788086
lowerneck -6.069164359850191 1.8645524244343614 4.785109256521441
upperneck 18.163372948670933 3.4966990233577073 -8.59932329768572
head 6.666301453699162 1.3058038545470776 -3.2869846833271037
rclavicle 1.9931604487524908E-15 -7.020455655456967E-16
rhumerus 21.037918566630978 15.568227092185255 -47.791599852856464
rradius 73.23444308529137
rwrist 26.718784629346207
rhand -34.60785164145666 -57.16543957826248
rfingers 7.1250200000000286
rthumb -7.709962052176911 -87.12035710320171
lclavicle -8.229732660866851E-16 -7.175991732399019E-16
lhumerus 23.16357743628398 -14.46688872973237 44.75974478006371
lradius 71.8297732803793
lwrist -22.236294149271302
lhand -45.73996772394984 -71.90101507123089
lfingers 7.1250200000000286
lthumb -18.49289107367436 -42.67856696284343
rfemur -25.1268449423043 -1.9993484131462322 17.6496639432417
rtibia 50.998934679347094
rfoot -33.91848076959478 -18.3000214151732
rtoes -21.727237324692037
lfemur -27.895680297859293 2.2143771544078956 -17.280998933369283
ltibia 51.10357801291916
lfoot -35.46315452608431 -0.39649661379697765
ltoes -21.97457087449005
90
root 0 0 0 1.5336181105930065 -3.784022873905142 1.8985818403599626
lowerback 12.217438528593934 0.939780661654407 -0.027725561836628443
upperback -4.449685594962446 1.1828941394373065 -0.6348089043241646
thorax -11.725808169568838 0.5469791326166233 -0.9084595642373001
lowerneck -6.073280944934903 1.8616158781950556 4.784879489233478
upperneck 18.178684025761893 3.492233565795339 -8.596794853641198
head 6.672482844727158 1.3037146044697723 -3.2868802697089317
rclavicle 2.2668005633529854E-15 -3.319919572180208E-16
rhumerus 21.00286987614247 15.533756104101025 -47.79287690990763
rradius 73.19778351416016
rwrist 26.718775888335124
rhand -34.60178370366167 -57.118647489392394
rfingers 7.125020000000028
rthumb -7.70323813592994 -87.07198922316917
lclavicle -6.77380401626749E-16 -4.535408226266592E-16
lhumerus 23.142255696080056 -14.49071401801035 44.78703288489329
lradius 71.82613970475609
lwrist -22.199637004912006
lhand -45.72740290307624 -71.8057135741665
lfingers 7.1250200000000286
lthumb -18.483150321837336 -42.58928544141962
rfemur -25.172333419879827 -1.84866028912995 17.828798607480074
rtibia 50.141153093650615
rfoot -34.37871436801685 -18.377404939642247
rtoes -21.70496170631633
lfemur -27.76678246151587 2.1593908124623105 -17.207978121619334
ltibia 50.76782865963965
lfoot -35.59488788320225 -0.30038776061452443
ltoes -22.277579118159906
91
root 0 0 0 1.5375489104642512 -3.840156454776883 1.8667935463773735
lowerback 12.2345388717341 0.952639396573459 0.007787846091187767
upperback -4.448390151478673 1.2037688778917786 -0.6315457245471504
thorax -11.73479145368946 0.5567453334925951 -0.9267933948854543
lowerneck -6.066257644592404 1.8666631124793882 4.779323750167265
upperneck 18.127005696419346 3.5000121847957324 -8.592175751982078
head 6.653764602621701 1.30784240254743 -3.283108370010453
rclavicle 2.1735908633500553E-15 -6.252234117057375E-16
rhumerus 21.061327349444696 15.592500794288084 -47.789925230665844
rradius 73.25294610678536
rwrist 26.715092463435184
rhand -34.613474899050324 -57.1794395480938
rfingers 7.1250200000000286
rthumb -7.715838019234388 -87.13850205972984
lclavicle -7.197252738874901E-16 -6.775949967065174E-16
lhumerus 23.184974409790584 -14.483135436750183 44.75356282121912
lradius 71.84649504464683
lwrist -22.236193030124163
lhand -45.75504150493947 -71.93354037108202
lfingers 7.1250200000000286
lthumb -18.50948935561978 -42.71632744085579
rfemur -25.069985094816644 -1.9226659678713665 17.786884077342037
rtibia 50.49878324837958
rfoot -34.32357598545207 -18.340603557536753
rtoes -21.80766307403757
lfemur -27.968701679408213 2.1485587531056303 -17.182079018825984
ltibia 50.838508185143844
lfoot -35.600825314838474 -0.2890547943434716
ltoes -22.18047495546106
92
root 0 0 0 1.5388716140807115 -3.854893012109942 1.8568237297187893
lowerback 12.237950187414928 0.9566037344116738 0.018678171086621065
upperback -4.447416256913221 1.2102439089606838 -0.6304174984291998
thorax -11.735578158779278 0.5597244837920751 -0.9323462889411427
lowerneck -6.066745297712 1.8668236013690966 4.7766901022068415
upperneck 18.11602014335956 3.5002176028805962 -8.589106220625936
head 6.65010446846472 1.3081199336800955 -3.2815411030991575
rclavicle 2.168435072724184E-15 -6.675589883710732E-16
rhumerus 21.075492994417722 15.609172157368574 -47.796227053093304
rradius 73.26543994197256
rwrist 26.70667312051822
rhand -34.61520151419768 -57.18305999426708
rfingers 7.1250200000000286
rthumb -7.717432946187136 -87.14303931521005
lclavicle -7.31239766338841E-16 -7.168939918961447E-16
lhumerus 23.181540814395966 -14.471953678312662 44.748543644064725
lradius 71.84086779926626
lwrist -22.244372416570712
lhand -45.755829296315184 -71.94783527727634
lfingers 7.1250200000000286
lthumb -18.50994276961895 -42.730687863264166
rfemur -25.005433618297616 -1.9222377662254413 17.807877942575967
rtibia 50.48568688330143
rfoot -34.361435242217645 -18.316258756557236
rtoes -21.864446755620957
lfemur -28.02141631599881 2.136013971522662 -17.14335903867793
ltibia 50.847259136685516
lfoot -35.528302179876874 -0.3037997975294311
ltoes -22.176485677336537
